<svg width="19" height="14" viewBox="0 0 19 14" fill="none" xmlns="http://www.w3.org/2000/svg">
<path fill-rule="evenodd" clip-rule="evenodd" d="M9.81188 0.424316C12.0213 0.424316 14.134 1.57149 16.1028 3.45629C16.7745 4.09931 17.3822 4.78579 17.9172 5.47256C18.24 5.88698 18.4692 6.21298 18.5946 6.4072L18.8738 6.83925L18.5946 7.27129C18.4692 7.46551 18.24 7.79151 17.9172 8.20593C17.3822 8.8927 16.7745 9.57918 16.1028 10.2222C14.134 12.107 12.0213 13.2542 9.81188 13.2542C7.60248 13.2542 5.4898 12.107 3.52092 10.2222C2.84923 9.57918 2.24155 8.8927 1.70661 8.20593C1.3838 7.79151 1.15462 7.46551 1.02914 7.27129L0.75 6.83925L1.02914 6.4072C1.15462 6.21298 1.3838 5.88698 1.70661 5.47256C2.24155 4.78579 2.84923 4.09931 3.52092 3.45629C5.4898 1.57149 7.60248 0.424316 9.81188 0.424316ZM16.6332 6.45104C16.1434 5.82225 15.5866 5.19318 14.9757 4.60833C13.2799 2.98498 11.5161 2.02725 9.8109 2.02725C8.10572 2.02725 6.34192 2.98498 4.64616 4.60833C4.03523 5.19318 3.47837 5.82225 2.98859 6.45104C2.88281 6.58685 2.78506 6.71642 2.69569 6.83844C2.78506 6.96047 2.88281 7.09004 2.98859 7.22585C3.47837 7.85463 4.03523 8.48371 4.64616 9.06855C6.34192 10.6919 8.10572 11.6496 9.8109 11.6496C11.5161 11.6496 13.2799 10.6919 14.9757 9.06855C15.5866 8.48371 16.1434 7.85463 16.6332 7.22585C16.739 7.09004 16.8367 6.96047 16.9261 6.83844C16.8367 6.71642 16.739 6.58685 16.6332 6.45104ZM6.57358 6.83869C6.57358 8.61012 8.02424 10.0462 9.81372 10.0462C11.6032 10.0462 13.0539 8.61012 13.0539 6.83869C13.0539 5.06725 11.6032 3.63122 9.81372 3.63122C8.02424 3.63122 6.57358 5.06725 6.57358 6.83869ZM11.4338 6.83893C11.4338 7.72465 10.7085 8.44266 9.81373 8.44266C8.91899 8.44266 8.19366 7.72465 8.19366 6.83893C8.19366 5.95321 8.91899 5.2352 9.81373 5.2352C10.7085 5.2352 11.4338 5.95321 11.4338 6.83893Z" fill="black"/>
</svg>
