<svg width="23" height="20" viewBox="0 0 23 20" fill="none" xmlns="http://www.w3.org/2000/svg">
<g clip-path="url(#clip0)">
<path fill-rule="evenodd" clip-rule="evenodd" d="M16.4506 0.077467C17.5126 -0.225982 18.6196 0.389003 18.923 1.45107C18.9741 1.62976 19 1.81468 19 2.00051V3.67478H21C22.1046 3.67478 23 4.57022 23 5.67478V17.6748C23 18.7794 22.1046 19.6748 21 19.6748H5C3.89543 19.6748 3 18.7794 3 17.6748H3.0267C3.00895 17.5672 3 17.4583 3 17.3491V5.42909C3 4.53613 3.59195 3.75135 4.45056 3.50604L16.4506 0.077467ZM11.1401 17.6748H21V9.67479H19V13.9205C19 14.8134 18.408 15.5982 17.5494 15.8435L11.1401 17.6748ZM21 5.67478V7.67479H19V5.67478H21ZM5 5.42906V17.349L17 13.9205V2.00049L5 5.42906ZM15 7.67479C15 8.22707 14.5523 8.67479 14 8.67479C13.4477 8.67479 13 8.22707 13 7.67479C13 7.1225 13.4477 6.67479 14 6.67479C14.5523 6.67479 15 7.1225 15 7.67479Z" fill="white"/>
</g>
<defs>
<clipPath id="clip0">
<rect width="22.0588" height="20" fill="white" transform="translate(0.853516)"/>
</clipPath>
</defs>
</svg>
