<svg width="25" height="25" viewBox="0 0 25 25" fill="none" xmlns="http://www.w3.org/2000/svg">
<path fill-rule="evenodd" clip-rule="evenodd" d="M16.6464 0.595873C17.9608 0.220326 19.3307 0.981428 19.7063 2.29584C19.7695 2.51698 19.8015 2.74584 19.8015 2.97583L19.8015 5.04831H22.2767C23.6437 5.04831 24.7519 6.15649 24.7519 7.5235V22.3747C24.7519 23.7417 23.6437 24.8498 22.2767 24.8498H2.47519C1.10818 24.8498 0 23.7417 0 22.3747H0.0331166C0.0111017 22.2414 0 22.1065 0 21.9711V7.21901C0 6.11389 0.7326 5.14266 1.7952 4.83906L16.6464 0.595873ZM10.0726 22.3747H22.2767V12.4737H19.8016V9.99848H22.2767V7.5235H19.8015L19.8015 17.7279C19.8015 18.8331 19.0689 19.8043 18.0063 20.1079L10.0726 22.3747ZM2.47459 7.21876V21.9709L17.3257 17.7277V2.97557L2.47459 7.21876ZM14.8511 9.99829C14.8511 10.6818 14.297 11.2359 13.6135 11.2359C12.93 11.2359 12.3759 10.6818 12.3759 9.99829C12.3759 9.31478 12.93 8.76069 13.6135 8.76069C14.297 8.76069 14.8511 9.31478 14.8511 9.99829Z" fill="white"/>
</svg>
