<svg width="27" height="24" viewBox="0 0 27 24" fill="none" xmlns="http://www.w3.org/2000/svg">
<path d="M19.8633 8C19.8633 6.4087 19.1844 4.88258 17.9759 3.75736C16.7675 2.63214 15.1285 2 13.4195 2C11.7105 2 10.0715 2.63214 8.86311 3.75736C7.65467 4.88258 6.97578 6.4087 6.97578 8C6.97578 15 3.75391 17 3.75391 17H23.0851C23.0851 17 19.8633 15 19.8633 8Z" stroke="#C9CED6" stroke-width="2" stroke-linecap="round" stroke-linejoin="round"/>
<path d="M15.2764 21C15.0876 21.3031 14.8166 21.5547 14.4905 21.7295C14.1645 21.9044 13.7948 21.9965 13.4185 21.9965C13.0422 21.9965 12.6725 21.9044 12.3464 21.7295C12.0204 21.5547 11.7494 21.3031 11.5605 21" stroke="#C9CED6" stroke-width="2" stroke-linecap="round" stroke-linejoin="round"/>
<ellipse cx="19.8625" cy="4" rx="3.22187" ry="3" fill="#252CFB"/>
</svg>
