<svg width="28" height="29" viewBox="0 0 28 29" fill="none" xmlns="http://www.w3.org/2000/svg">
<path fill-rule="evenodd" clip-rule="evenodd" d="M0 14.5C0 22.232 6.26801 28.5 14 28.5C21.732 28.5 28 22.232 28 14.5C28 6.76801 21.732 0.5 14 0.5C6.26801 0.5 0 6.76801 0 14.5ZM25.4545 14.5C25.4545 20.8262 20.3262 25.9545 14 25.9545C7.67383 25.9545 2.54545 20.8262 2.54545 14.5C2.54545 8.17383 7.67383 3.04545 14 3.04545C20.3262 3.04545 25.4545 8.17383 25.4545 14.5ZM14.0004 20.8612C14.7036 20.8612 15.2736 20.2913 15.2736 19.5884C15.2736 18.8855 14.7036 18.3157 14.0004 18.3157C13.2973 18.3157 12.7273 18.8855 12.7273 19.5884C12.7273 20.2913 13.2973 20.8612 14.0004 20.8612ZM12.7273 17.0455H15.2727C15.2727 16.0294 15.4324 15.8431 16.4783 15.3202C18.296 14.4113 19.0909 13.4839 19.0909 11.3182C19.0909 8.54444 16.9074 6.86364 14 6.86364C11.1884 6.86364 8.90909 9.14291 8.90909 11.9545H11.4545C11.4545 10.5487 12.5942 9.40909 14 9.40909C15.6255 9.40909 16.5455 10.1172 16.5455 11.3182C16.5455 12.3343 16.3858 12.5205 15.3399 13.0435C13.5222 13.9523 12.7273 14.8797 12.7273 17.0455Z" fill="white"/>
</svg>
