<svg width="24" height="20" viewBox="0 0 24 20" fill="none" xmlns="http://www.w3.org/2000/svg">
<path fill-rule="evenodd" clip-rule="evenodd" d="M0 2.87497C0 4.18663 1.06331 5.24994 2.37497 5.24994C3.68663 5.24994 4.74994 4.18663 4.74994 2.87497C4.74994 1.56331 3.68663 0.5 2.37497 0.5C1.06331 0.5 0 1.56331 0 2.87497ZM23.749 1.68767V4.06264H7.12418V1.68767H23.749ZM23.749 11.1877V8.81277H7.12418V11.1877H23.749ZM23.749 18.3119V15.937H7.12418V18.3119H23.749ZM0 17.1252C0 18.4368 1.06331 19.5001 2.37497 19.5001C3.68663 19.5001 4.74994 18.4368 4.74994 17.1252C4.74994 15.8135 3.68663 14.7502 2.37497 14.7502C1.06331 14.7502 0 15.8135 0 17.1252ZM2.37497 12.375C1.06331 12.375 0 11.3117 0 10.0001C0 8.68841 1.06331 7.6251 2.37497 7.6251C3.68663 7.6251 4.74994 8.68841 4.74994 10.0001C4.74994 11.3117 3.68663 12.375 2.37497 12.375Z" fill="white"/>
</svg>
