<svg width="27" height="24" viewBox="0 0 27 24" fill="none" xmlns="http://www.w3.org/2000/svg">
<path d="M17.153 14H16.3046L16.0038 13.73C17.0563 12.59 17.69 11.11 17.69 9.5C17.69 5.91 14.5647 3 10.7092 3C6.85373 3 3.72852 5.91 3.72852 9.5C3.72852 13.09 6.85373 16 10.7092 16C12.4383 16 14.0278 15.41 15.2521 14.43L15.542 14.71V15.5L20.9118 20.49L22.512 19L17.153 14V14ZM10.7092 14C8.03508 14 5.87643 11.99 5.87643 9.5C5.87643 7.01 8.03508 5 10.7092 5C13.3834 5 15.542 7.01 15.542 9.5C15.542 11.99 13.3834 14 10.7092 14Z" fill="#C9CED6"/>
</svg>
