<svg width="11" height="9" viewBox="0 0 11 9" fill="none" xmlns="http://www.w3.org/2000/svg">
<path fill-rule="evenodd" clip-rule="evenodd" d="M5.40707 0.321777C6.74686 0.321777 8.02799 1.01742 9.22193 2.16038C9.62925 2.5503 9.99774 2.96659 10.3221 3.38305C10.5179 3.63436 10.6569 3.83204 10.733 3.94982C10.836 4.10929 10.836 4.31434 10.733 4.4738C10.6569 4.59158 10.5179 4.78927 10.3221 5.04057C9.99774 5.45703 9.62925 5.87332 9.22193 6.26325C8.02799 7.4062 6.74686 8.10185 5.40707 8.10185C4.06727 8.10185 2.78614 7.4062 1.5922 6.26325C1.18489 5.87332 0.81639 5.45703 0.491998 5.04057C0.29625 4.78927 0.157271 4.59158 0.0811788 4.4738C-0.0218512 4.31434 -0.0218513 4.10929 0.0811788 3.94982C0.157271 3.83204 0.29625 3.63436 0.491998 3.38305C0.81639 2.96659 1.18489 2.5503 1.5922 2.16038C2.78614 1.01742 4.06727 0.321777 5.40707 0.321777ZM9.54336 3.97665C9.24636 3.59535 8.90868 3.21387 8.53821 2.85922C7.50988 1.87481 6.44031 1.29404 5.40628 1.29404C4.37225 1.29404 3.30268 1.87481 2.27436 2.85922C1.90389 3.21387 1.56621 3.59535 1.26921 3.97665C1.16146 4.11498 1.16146 4.30816 1.26921 4.44649C1.56621 4.82779 1.90389 5.20927 2.27436 5.56392C3.30268 6.54833 4.37225 7.1291 5.40628 7.1291C6.44031 7.1291 7.50988 6.54833 8.53821 5.56392C8.90868 5.20927 9.24636 4.82779 9.54336 4.44649C9.65111 4.30816 9.65111 4.11498 9.54336 3.97665ZM3.44316 4.21157C3.44316 5.28577 4.32284 6.15659 5.40799 6.15659C6.49314 6.15659 7.37282 5.28577 7.37282 4.21157C7.37282 3.13737 6.49314 2.26655 5.40799 2.26655C4.32284 2.26655 3.44316 3.13737 3.44316 4.21157ZM6.39041 4.21157C6.39041 4.74867 5.95057 5.18408 5.408 5.18408C4.86542 5.18408 4.42558 4.74867 4.42558 4.21157C4.42558 3.67447 4.86542 3.23906 5.408 3.23906C5.95057 3.23906 6.39041 3.67447 6.39041 4.21157Z" fill="white"/>
</svg>
